<mxfile host="app.diagrams.net" modified="2023-04-26T15:28:13.211Z" agent="Mozilla/5.0 (Windows NT 10.0; Win64; x64) AppleWebKit/537.36 (KHTML, like Gecko) Chrome/111.0.0.0 Safari/537.36 OPR/97.0.0.0" version="21.2.2" etag="JHd7vgt7iR3w5-gUsWWM" type="github">
  <diagram name="Page-1" id="wpSmDp-ckAxTQJmQG7ge">
    <mxGraphModel>
      <root>
        <mxCell id="0" />
        <mxCell id="1" parent="0" />
      </root>
    </mxGraphModel>
  </diagram>
</mxfile>
